# xmcd
#
# Track frame offsets:
#	150
#	18368
#	32650
#	54806
#	72986
#	92528
#	106235
#	126275
#	141357
#	155404
#	170788
#	187909
#
# Disc length: 2703 seconds
#
# Revision: 0
# Processed by: cddbd v1.5.2PL0 Copyright (c) Steve Scherf et al.
# Submitted via: EasyCDDAExtractor 2010.4.0.0
#
DISCID=9a0a8d0c
DTITLE=꿈이 있는 자유 - 꿈이 있는 자유 7집 - 바람이 불어오네
DYEAR=2010
DGENRE=Gospel
TTITLE0=새 하루
TTITLE1=바람이 불어오네
TTITLE2=나를 찾아 오는 사랑
TTITLE3=청종(聽從)
TTITLE4=의인은 믿음으로 살리
TTITLE5=나사렛에서 시작 된 바람
TTITLE6=임계점(臨界點)
TTITLE7=아침 햇살 비춰오는
TTITLE8=나의 즐거운 마음 받아주소서
TTITLE9=사랑하는 마음 하나
TTITLE10=하늘의 말씀이
TTITLE11=약한 자 강하게
EXTD=
EXTT0=
EXTT1=
EXTT2=
EXTT3=
EXTT4=
EXTT5=
EXTT6=
EXTT7=
EXTT8=
EXTT9=
EXTT10=
EXTT11=
PLAYORDER=
